<svg height="84" viewBox="0 0 73 73" width="84" xmlns="http://www.w3.org/2000/svg"><g fill="none" fill-rule="nonzero"><rect fill="#fff" height="71" rx="14" stroke="#38454f" stroke-width="2" width="71" x="1" y="1"/><g transform="translate(14 16)"><path d="m31.7483333 41.8723684h-18.5843859c0-1.7105263 1.3868421-3.0973684 3.0973684-3.0973684h12.3895614c1.710614-.0000877 3.0974561 1.3868421 3.0974561 3.0973684" fill="#e8edee"/><path d="m27.8765789 38.7749123h-10.8408771l1.5486842-6.1947369h7.7435087z" fill="#b0b6bb"/><path d="m44.9123684 26.3853509h-44.9123684v-23.6176316c0-1.49684211 1.21342105-2.71026316 2.71026316-2.71026316h39.49184214c1.4968421 0 2.7102631 1.21342105 2.7102631 2.71026316z" fill="#38454f"/><path d="m42.2020175 32.5801754h-39.49175434c-1.49684211 0-2.71026316-1.213421-2.71026316-2.7102631v-3.4845614h44.9122807v3.4845614c0 1.4968421-1.2134211 2.7102631-2.7102632 2.7102631" fill="#e8edee"/><g fill="#ea6148" transform="translate(6.140351 3.070175)"><path d="m31.802807 20.217807h-11.6152631c-.4282457 0-.774386-.3469298-.774386-.7743859 0-.4274562.3461403-.774386.774386-.774386h11.6152631c.4282456 0 .774386.3469298.774386.774386-.0000877.4274561-.3462281.7743859-.774386.7743859"/><path d="m8.5722807 15.5716667h-7.74350877c-.42824561 0-.77438597-.3469299-.77438597-.774386s.34614036-.774386.77438597-.774386h7.74350877c.42824562 0 .77438597.3469299.77438597.774386s-.34614035.774386-.77438597.774386"/><path d="m27.9310526 15.5716667h-11.6152631c-.4282456 0-.774386-.3469299-.774386-.774386s.3461404-.774386.774386-.774386h11.6152631c.4282456 0 .774386.3469299.774386.774386-.0000877.4274561-.3462281.774386-.774386.774386"/><path d="m12.4440351 15.5716667c-.1007018 0-.2013158-.0232456-.2942105-.0619299-.1007018-.0386842-.1780702-.0928947-.2555264-.1626315-.1401754-.1471053-.2245614-.3407018-.2245614-.5498246s.084386-.4026316.2245614-.5498246c.0774562-.0696491.1549123-.1238596.2555264-.1626315.2779824-.1161404.6271929-.0542106.844035.1626315.139386.1471053.2245615.3484211.2245615.5498246 0 .2013158-.0851755.4026316-.2245615.5498246-.1471929.1393859-.3485087.2245614-.5498245.2245614"/><path d="m16.3157895 20.217807h-11.61526318c-.42824562 0-.77438597-.3469298-.77438597-.7743859 0-.4274562.34614035-.774386.77438597-.774386h11.61526318c.4282456 0 .7743859.3469298.7743859.774386 0 .4274561-.3461403.7743859-.7743859.7743859"/><path d="m.82877193 20.217807c-.10070175 0-.20131579-.0232456-.29421053-.0619298-.09289473-.0386842-.17807017-.0928947-.25552631-.1626316-.14017544-.1471052-.22456141-.3407017-.22456141-.5498245 0-.1007018.02324562-.2013158.06192983-.2942106.03868421-.1007017.09289474-.1780701.16263158-.2555263.18587719-.1780702.44912281-.2555263.69614035-.2090351.055.0077193.10070175.0232456.14789474.0464913.04570175.0155263.09289473.0386842.13166666.0696491.04570176.0309649.08517544.0619298.12385965.0928947.06964912.0774562.12385965.1549123.16263158.2555263.03868421.0928948.06192982.1935965.06192982.2942106 0 .209035-.08517543.4026315-.2245614.5498245-.03868421.0309649-.07824561.0619298-.12385965.0928948-.03868421.0309649-.08596491.0542105-.13166666.0696491-.04719299.0232456-.09289474.0386842-.14789474.0464912-.04570176.0077193-.09991228.0155263-.14640351.0155263"/><path d="m31.802807 15.5716667c-.047193 0-.1007017-.0077193-.1471052-.0155263-.0542106-.0077193-.1007018-.0232457-.1471053-.0464913-.0464912-.0155263-.0928947-.0386842-.1401754-.0696491-.0379825-.0309649-.0766667-.0619298-.1153509-.0928947-.1401755-.1471053-.2245614-.3484211-.2245614-.5498246 0-.2013158.0843859-.4026316.2245614-.5498246l.1153509-.0928947c.0472807-.0309649.0936842-.0542105.1401754-.0696491.0464912-.0232456.0928947-.0386842.1471053-.0464912.247807-.0542106.5180701.0309649.6969298.209035.0309649.0386843.0619298.0774562.0928947.1238597.0309649.0386842.0534211.0851754.0696491.1316667.0232457.0464912.0386842.0928947.0457018.1471052.0085088.0464912.0162281.1007018.0162281.1471053s-.0077193.1007017-.0162281.1549123c-.0069298.0464912-.0224561.0928947-.0457018.1393859-.016228.0464913-.0386842.0928948-.0696491.139386-.0309649.0386842-.0619298.0774561-.0928947.1161403-.0386842.030965-.0782456.0619299-.1161404.0928948-.0464912.0309649-.0936842.0542105-.1393859.0696491-.047193.0232456-.0928948.0386842-.1478948.0464912-.0457894.0078948-.1.0156141-.1464035.0156141"/><path d="m31.802807 6.27947368h-11.6152631c-.4282457 0-.774386-.34692982-.774386-.77438596s.3461403-.77438597.774386-.77438597h11.6152631c.4282456 0 .774386.34692983.774386.77438597s-.3462281.77438596-.774386.77438596"/><path d="m31.802807 10.925614h-7.7435088c-.4282456 0-.7743859-.3469298-.7743859-.7743859 0-.42745617.3461403-.77438599.7743859-.77438599h7.7435088c.4282456 0 .774386.34692982.774386.77438599 0 .4274561-.3462281.7743859-.774386.7743859"/><path d="m17.8644737 10.925614h-1.5486842c-.4282456 0-.774386-.3469298-.774386-.7743859 0-.42745617.3461404-.77438599.774386-.77438599h1.5486842c.4282456 0 .7743859.34692982.7743859.77438599 0 .4274561-.3461403.7743859-.7743859.7743859"/><path d="m27.9310526 1.63342105h-11.6152631c-.4282456 0-.774386-.34692982-.774386-.77438596s.3461404-.77438597.774386-.77438597h11.6152631c.4282456 0 .774386.34692983.774386.77438597s-.3462281.77438596-.774386.77438596"/><path d="m31.802807 1.63342105c-.047193 0-.1007017-.0077193-.1471052-.01552631-.0542106-.0077193-.1007018-.02324562-.1471053-.04649123-.0464912-.01552632-.0928947-.03868421-.1401754-.06964912-.0379825-.03096492-.0766667-.06192983-.1153509-.09289474-.1401755-.14710526-.2245614-.34842105-.2245614-.54982456 0-.20131579.0843859-.40263158.2245614-.54982456l.1153509-.09289474c.0472807-.03096491.0936842-.05421053.1401754-.06964912.0464912-.02324562.0928947-.03868421.1471053-.04649123.247807-.05421053.5180701.03096491.6969298.20903509.0309649.03868421.0619298.07745614.0928947.12385965.0309649.03868421.0534211.08517543.0696491.13166666.0232457.04649123.0386842.09289474.0457018.14710527.0085088.04649122.0162281.10070175.0162281.14710526s-.0077193.10070175-.0162281.15491228c-.0069298.04649123-.0224561.09289474-.0457018.13938596-.016228.04649123-.0386842.09289474-.0696491.13938597-.0309649.03868421-.0619298.07745614-.0928947.11614035-.0386842.03096491-.0782456.06192982-.1161404.09289474-.0464912.03096491-.0936842.05421052-.1393859.06964912-.047193.02324561-.0928948.03868421-.1478948.04649123-.0457894.00780702-.1.01561403-.1464035.01561403"/><path d="m17.0901754 6.27947368c-.2013158 0-.403421-.08517543-.5498245-.2245614-.0696491-.07745614-.1238597-.16263158-.1626316-.25552632-.0387719-.09289473-.0619298-.19359649-.0619298-.29421052 0-.10070176.0232456-.20131579.0619298-.29421053.0386842-.09289473.0928947-.17807017.1626316-.25552631.1780702-.17807018.4491228-.25552632.6961403-.20903509.055.0077193.1007018.02324561.1478948.04649123.0457017.01552631.0928947.03868421.1316666.06964912.0457018.03096491.0851755.06192982.1161404.09289474.0774561.07745614.1316666.16263158.1703509.25552631.0386842.09289474.0619298.19359649.0619298.29421053 0 .10070175-.0232456.20131579-.0619298.29421052-.0386843.09289474-.0928948.17807018-.1703509.25552632-.0309649.03096491-.0704386.06192983-.1161404.09289474-.0386842.03096491-.0859649.05421052-.1316666.06964912-.047193.02324561-.0928948.03868421-.1478948.04649123-.0457017.00780702-.0999123.01552631-.1463158.01552631"/><path d="m20.9619298 10.925614c-.2098245 0-.403421-.0851754-.5498245-.2245614-.1401755-.1471052-.2245614-.348421-.2245614-.5498245 0-.20131582.0843859-.40263161.2245614-.54982459.2864912-.28649123.8130701-.28649123 1.0995614 0 .1393859.14710526.2245614.34842105.2245614.54982459 0 .0542105-.0077193.1007017-.0162281.1549123-.0069298.0464912-.0224561.0928947-.0457018.1393859-.016228.0464912-.0386842.0928948-.0696491.139386-.0309649.0386842-.0619298.0774561-.0928947.1161403-.147193.139386-.3407895.2245614-.5498246.2245614"/></g><path d="m6.96912281 13.9957895h10.84087719v-10.84087722h-10.84087719z" fill="#ecba16"/></g></g></svg>